<svg width="44" height="44" viewBox="0 0 44 44" fill="none" xmlns="http://www.w3.org/2000/svg">
<path d="M22 2.75C11.3695 2.75 2.75 11.593 2.75 22.4898C2.75 31.2125 8.26719 38.6031 15.9156 41.2156C16.0229 41.2389 16.1324 41.2505 16.2422 41.25C16.9555 41.25 17.2305 40.7258 17.2305 40.2703C17.2305 39.7977 17.2133 38.5602 17.2047 36.9102C16.5679 37.0594 15.9165 37.1373 15.2625 37.1422C11.5586 37.1422 10.7164 34.2633 10.7164 34.2633C9.83984 31.9859 8.57656 31.3758 8.57656 31.3758C6.90078 30.1984 8.56797 30.1641 8.69687 30.1641H8.70547C10.6391 30.3359 11.6531 32.2094 11.6531 32.2094C12.6156 33.8937 13.9047 34.3664 15.0562 34.3664C15.8177 34.3512 16.5673 34.1755 17.2563 33.8508C17.4281 32.5789 17.9266 31.7109 18.4766 31.2125C14.2055 30.7141 9.71094 29.0211 9.71094 21.4586C9.71094 19.3016 10.4586 17.5398 11.6875 16.1648C11.4898 15.6664 10.8281 13.6555 11.8766 10.9398C12.0172 10.9062 12.1617 10.8917 12.3062 10.8969C13.0023 10.8969 14.575 11.1633 17.1703 12.968C20.3238 12.0857 23.659 12.0857 26.8125 12.968C29.4078 11.1633 30.9805 10.8969 31.6766 10.8969C31.8211 10.8917 31.9656 10.9062 32.1063 10.9398C33.1547 13.6555 32.493 15.6664 32.2953 16.1648C33.5242 17.5484 34.2719 19.3102 34.2719 21.4586C34.2719 29.0383 29.7687 30.7055 25.4805 31.1953C26.168 31.8055 26.7867 33.0086 26.7867 34.8477C26.7867 37.4859 26.7609 39.6172 26.7609 40.2617C26.7609 40.7258 27.0273 41.25 27.7406 41.25C27.8561 41.2505 27.9713 41.239 28.0844 41.2156C35.7414 38.6031 41.25 31.2039 41.25 22.4898C41.25 11.593 32.6305 2.75 22 2.75Z" fill="#D6D6D6"/>
</svg>
