<svg width="24" height="24" viewBox="0 0 24 24" fill="none" xmlns="http://www.w3.org/2000/svg">
<path d="M8.57812 16.5C7.55437 16.4756 6.75 15.6141 6.75 14.5903V12.9933C6.74994 12.9102 6.72228 12.8295 6.67138 12.7638C6.62047 12.6982 6.5492 12.6513 6.46875 12.6305C4.88672 12.2156 3.75 10.7691 3.75 9.00002C3.75122 8.11735 4.06321 7.2633 4.63124 6.5877C5.19927 5.9121 5.98706 5.45809 6.85641 5.30533C6.93558 5.29219 7.00845 5.25401 7.06431 5.19638C7.12017 5.13875 7.15606 5.06472 7.16672 4.98517C7.32111 3.81259 7.89652 2.73613 8.78573 1.95633C9.67493 1.17653 10.8173 0.746582 12 0.746582C13.1827 0.746582 14.3251 1.17653 15.2143 1.95633C16.1035 2.73613 16.6789 3.81259 16.8333 4.98517C16.8439 5.06472 16.8798 5.13875 16.9357 5.19638C16.9915 5.25401 17.0644 5.29219 17.1436 5.30533C18.0687 5.46601 18.8999 5.9679 19.4729 6.71181C20.0458 7.45572 20.3188 8.38751 20.238 9.323C20.1571 10.2585 19.7282 11.1296 19.0361 11.7641C18.344 12.3987 17.439 12.7505 16.5 12.75C15.686 12.7461 14.8991 12.4574 14.2758 11.9339C14.2106 11.8801 14.129 11.8501 14.0444 11.8489C13.9599 11.8478 13.8775 11.8754 13.8108 11.9274C13.2949 12.3351 12.6575 12.5587 12 12.5625C11.6542 12.5599 11.3103 12.5098 10.9781 12.4135C10.9223 12.3975 10.8636 12.3947 10.8065 12.4053C10.7494 12.4159 10.6956 12.4396 10.6492 12.4746C10.6029 12.5095 10.5653 12.5547 10.5394 12.6067C10.5135 12.6586 10.5 12.7159 10.5 12.7739V14.625C10.5001 14.8752 10.4501 15.1229 10.3529 15.3535C10.2558 15.5841 10.1135 15.793 9.93436 15.9677C9.75525 16.1424 9.54298 16.2796 9.31006 16.371C9.07714 16.4624 8.82827 16.5063 8.57812 16.5Z" fill="#ED8240"/>
<path d="M12.3465 14.0484C12.2528 14.0555 12.1652 14.0976 12.101 14.1663C12.0369 14.2349 12.0008 14.3252 12 14.4192V14.6249C11.9991 15.3452 11.7681 16.0464 11.3406 16.6262C10.9132 17.206 10.3118 17.6341 9.62395 17.8481C9.57415 17.864 9.52824 17.8902 9.48915 17.9249C9.45007 17.9597 9.41869 18.0022 9.39701 18.0498C9.37534 18.0974 9.36386 18.1489 9.3633 18.2012C9.36275 18.2535 9.37313 18.3053 9.39379 18.3534L11.3115 22.7971C11.3695 22.9316 11.4656 23.0461 11.588 23.1266C11.7103 23.2071 11.8536 23.2499 12 23.2499C12.1467 23.2498 12.2901 23.2066 12.4125 23.1258C12.5349 23.045 12.6309 22.9301 12.6886 22.7952L16.1471 14.7257C16.1697 14.6729 16.1799 14.6156 16.1769 14.5582C16.1739 14.5007 16.1577 14.4448 16.1296 14.3947C16.1015 14.3445 16.0623 14.3015 16.0149 14.2689C15.9676 14.2363 15.9133 14.2151 15.8564 14.2068C15.2676 14.1275 14.6977 13.9435 14.1736 13.6635C14.1225 13.6362 14.0656 13.6212 14.0076 13.6195C13.9496 13.6179 13.8921 13.6298 13.8394 13.6542C13.3685 13.8715 12.8633 14.0049 12.3465 14.0484Z" fill="#ED8240"/>
</svg>
