<svg width="44" height="44" viewBox="0 0 44 44" fill="none" xmlns="http://www.w3.org/2000/svg">
<path d="M38.1709 2.75H6.03969C4.28398 2.75 2.75 4.01328 2.75 5.74836V37.9509C2.75 39.6954 4.28398 41.25 6.03969 41.25H38.1614C39.9266 41.25 41.25 39.6851 41.25 37.9509V5.74836C41.2603 4.01328 39.9266 2.75 38.1709 2.75ZM14.6841 34.8416H9.16867V17.6928H14.6841V34.8416ZM12.1172 15.0855H12.0777C10.3125 15.0855 9.16953 13.7715 9.16953 12.1266C9.16953 10.4517 10.3426 9.16867 12.1473 9.16867C13.952 9.16867 15.0563 10.4423 15.0958 12.1266C15.0949 13.7715 13.952 15.0855 12.1172 15.0855ZM34.8416 34.8416H29.3262V25.465C29.3262 23.2186 28.5235 21.6838 26.528 21.6838C25.0035 21.6838 24.1012 22.715 23.6998 23.7196C23.5495 24.0805 23.5091 24.5721 23.5091 25.074V34.8416H17.9936V17.6928H23.5091V20.0793C24.3117 18.9363 25.5655 17.2915 28.4831 17.2915C32.1037 17.2915 34.8425 19.678 34.8425 24.823L34.8416 34.8416Z" fill="#D6D6D6"/>
</svg>
