<svg width="22" height="28" viewBox="0 0 22 28" fill="none" xmlns="http://www.w3.org/2000/svg">
<path d="M11.1176 1C6.01169 1 1.86914 4.83688 1.86914 9.5625C1.86914 15 8.03479 23.6169 10.2987 26.5931C10.3927 26.7188 10.5159 26.821 10.6582 26.8915C10.8005 26.962 10.9579 26.9987 11.1176 26.9987C11.2773 26.9987 11.4347 26.962 11.577 26.8915C11.7193 26.821 11.8425 26.7188 11.9365 26.5931C14.2004 23.6181 20.3661 15.0044 20.3661 9.5625C20.3661 4.83688 16.2235 1 11.1176 1Z" stroke="#ED8240" stroke-width="2" stroke-linecap="round" stroke-linejoin="round"/>
<path d="M11.1175 13C12.8201 13 14.2003 11.6569 14.2003 10C14.2003 8.34315 12.8201 7 11.1175 7C9.4149 7 8.03467 8.34315 8.03467 10C8.03467 11.6569 9.4149 13 11.1175 13Z" stroke="#ED8240" stroke-width="2" stroke-linecap="round" stroke-linejoin="round"/>
</svg>
