<svg xmlns="http://www.w3.org/2000/svg" fill="none" viewBox="0 0 240 64"><path fill="#FEB05D" d="m38.806 29.88-4.412 30.622L22.026 44.76"/><path stroke="#000" stroke-linecap="round" stroke-linejoin="round" stroke-width="4" d="m38.806 29.88-4.412 30.622L22.026 44.76"/><path fill="#BE8445" d="M39.461 29.186 22.766 46.083l.145-12.98"/><path fill="#FEB05D" stroke="#000" stroke-linecap="round" stroke-linejoin="round" stroke-width="4" d="M31.29 27.62c-.407 2.247-2.036 4.293-4.388 4.923-1.606.43-3.475.274-4.444-.092-.892-.335-1.836.198-1.507 1.424l2.037 7.603a3.056 3.056 0 0 1-2.155 3.732 3.056 3.056 0 0 1-3.731-2.155l-1.84-6.867-.246.066c-4.335 1.161-8.544-1.476-9.706-5.811a8.125 8.125 0 0 1 5.746-9.951l.98-.263-.262-.981a11.172 11.172 0 1 1 21.582-5.783l.263.981.981-.263a8.125 8.125 0 0 1 4.206 15.696c-2.67.716-5.578-.214-7.517-2.258v-.002Z"/><path fill="#FEB05D" d="m52.438 35.797-16.941 25.89-4.555-19.496"/><path stroke="#000" stroke-linecap="round" stroke-linejoin="round" stroke-width="4" d="m52.438 35.797-16.941 25.89-4.555-19.496"/><path fill="#BE8445" d="m53.324 35.446-22.272 8.258L36.67 32"/><path fill="#ED8240" stroke="#000" stroke-linecap="round" stroke-linejoin="round" stroke-width="4" d="M46.58 30.572c-1.319 1.865-3.659 3.031-6.057 2.609-1.638-.29-3.265-1.22-3.99-1.962-.666-.68-1.747-.597-1.967.653l-1.367 7.752a3.056 3.056 0 0 1-3.53 2.471 3.056 3.056 0 0 1-2.47-3.53l1.234-7-.25-.045c-4.42-.78-7.12-4.948-6.341-9.368a8.125 8.125 0 0 1 9.412-6.59l1 .176.177-1a11.172 11.172 0 1 1 22.004 3.88l-.176 1 1 .176a8.125 8.125 0 1 1-2.822 16.003c-2.723-.48-4.964-2.551-5.858-5.224h.001Z"/><path fill="url(#a)" d="M228.068 34.872c.811 0 1.515-.101 2.112-.304.608-.202 1.104-.48 1.488-.832a3.4 3.4 0 0 0 .88-1.28c.192-.49.288-1.03.288-1.616 0-1.173-.389-2.074-1.168-2.704-.768-.63-1.946-.944-3.536-.944h-2.752v7.68h2.688ZM239.14 47h-3.888c-.736 0-1.269-.288-1.6-.864l-4.864-7.408c-.181-.277-.384-.474-.608-.592-.213-.117-.533-.176-.96-.176h-1.84V47h-4.304V23.864h7.056c1.568 0 2.912.166 4.032.496 1.131.32 2.054.774 2.768 1.36a5.3 5.3 0 0 1 1.6 2.112c.341.81.512 1.707.512 2.688 0 .779-.117 1.515-.352 2.208a6.159 6.159 0 0 1-.992 1.888 6.498 6.498 0 0 1-1.6 1.488 7.892 7.892 0 0 1-2.16 1.008c.278.16.534.352.768.576.235.214.448.47.64.768L239.14 47Z"/><path fill="url(#b)" d="M206.99 27.288v6.416h8.096v3.312h-8.096v6.544h10.272V47H202.67V23.864h14.592v3.424H206.99Z"/><path fill="url(#c)" d="M197.49 47h-4.32V23.864h4.32V47Z"/><path fill="url(#d)" d="M188.008 23.864V47h-3.792V32.056c0-.597.032-1.242.096-1.936l-6.992 13.136c-.331.63-.837.944-1.52.944h-.608c-.683 0-1.189-.314-1.52-.944L166.6 30.072c.032.352.059.699.08 1.04.021.342.032.656.032.944V47h-3.792V23.864h3.248c.192 0 .357.006.496.016s.261.038.368.08a.74.74 0 0 1 .304.208c.096.096.187.224.272.384l6.928 12.848c.181.342.347.694.496 1.056.16.363.315.736.464 1.12.149-.394.304-.773.464-1.136.16-.373.331-.73.512-1.072l6.832-12.816c.085-.16.176-.288.272-.384a.907.907 0 0 1 .304-.208c.117-.042.245-.07.384-.08.139-.01.304-.016.496-.016h3.248Z"/><path fill="url(#e)" d="m152.925 38.264-2.816-7.696a16.543 16.543 0 0 1-.432-1.216c-.15-.47-.299-.976-.448-1.52a31.465 31.465 0 0 1-.432 1.536c-.15.47-.294.88-.432 1.232l-2.8 7.664h7.36Zm7.6 8.736h-3.328c-.374 0-.678-.09-.912-.272a1.8 1.8 0 0 1-.528-.704l-1.728-4.72h-9.584l-1.728 4.72c-.086.246-.251.47-.496.672-.246.203-.55.304-.912.304h-3.36l9.104-23.136h4.384L160.525 47Z"/><path fill="url(#f)" d="M126.615 27.288v6.416h8.096v3.312h-8.096v6.544h10.272V47h-14.592V23.864h14.592v3.424h-10.272Z"/><path fill="url(#g)" d="M108.724 34.872c.811 0 1.515-.101 2.112-.304.608-.202 1.104-.48 1.488-.832a3.4 3.4 0 0 0 .88-1.28c.192-.49.288-1.03.288-1.616 0-1.173-.389-2.074-1.168-2.704-.768-.63-1.946-.944-3.536-.944h-2.752v7.68h2.688ZM119.796 47h-3.888c-.736 0-1.269-.288-1.6-.864l-4.864-7.408c-.181-.277-.384-.474-.608-.592-.213-.117-.533-.176-.96-.176h-1.84V47h-4.304V23.864h7.056c1.568 0 2.912.166 4.032.496 1.131.32 2.054.774 2.768 1.36a5.3 5.3 0 0 1 1.6 2.112c.342.81.512 1.707.512 2.688 0 .779-.117 1.515-.352 2.208a6.137 6.137 0 0 1-.992 1.888 6.48 6.48 0 0 1-1.6 1.488 7.892 7.892 0 0 1-2.16 1.008c.278.16.534.352.768.576.235.214.448.47.64.768L119.796 47Z"/><path fill="url(#h)" d="M96.464 41.544c.235 0 .443.09.624.272l1.696 1.84a9.3 9.3 0 0 1-3.472 2.672c-1.365.619-3.008.928-4.928.928-1.717 0-3.264-.293-4.64-.88a10.23 10.23 0 0 1-3.504-2.448c-.97-1.045-1.717-2.293-2.24-3.744-.512-1.45-.768-3.034-.768-4.752 0-1.739.277-3.328.832-4.768.555-1.45 1.333-2.699 2.336-3.744a10.597 10.597 0 0 1 3.616-2.432c1.397-.587 2.944-.88 4.64-.88 1.685 0 3.179.277 4.48.832 1.312.555 2.427 1.28 3.344 2.176l-1.44 2c-.085.128-.197.24-.336.336-.128.096-.31.144-.544.144-.16 0-.325-.043-.496-.128-.17-.096-.357-.208-.56-.336a14.07 14.07 0 0 0-.704-.448 5.37 5.37 0 0 0-.928-.432 6.59 6.59 0 0 0-1.232-.336 7.879 7.879 0 0 0-1.6-.144c-1.035 0-1.984.187-2.848.56a6.063 6.063 0 0 0-2.208 1.6c-.619.694-1.099 1.547-1.44 2.56-.341 1.003-.512 2.15-.512 3.44 0 1.301.181 2.459.544 3.472.373 1.013.875 1.867 1.504 2.56a6.482 6.482 0 0 0 2.224 1.6c.853.363 1.77.544 2.752.544.587 0 1.115-.032 1.584-.096.48-.064.917-.165 1.312-.304a5.818 5.818 0 0 0 1.136-.528 7.31 7.31 0 0 0 1.072-.816 1.32 1.32 0 0 1 .336-.224.758.758 0 0 1 .368-.096Z"/><defs><linearGradient id="a" x1="221.163" x2="239.434" y1="30.607" y2="30.751" gradientUnits="userSpaceOnUse"><stop stop-color="#F7AC5C"/><stop offset="1" stop-color="#DB7637"/></linearGradient><linearGradient id="b" x1="202.74" x2="217.5" y1="30.607" y2="30.701" gradientUnits="userSpaceOnUse"><stop stop-color="#F7AC5C"/><stop offset="1" stop-color="#DB7637"/></linearGradient><linearGradient id="c" x1="193.191" x2="197.56" y1="30.607" y2="30.615" gradientUnits="userSpaceOnUse"><stop stop-color="#F7AC5C"/><stop offset="1" stop-color="#DB7637"/></linearGradient><linearGradient id="d" x1="163.04" x2="188.415" y1="30.607" y2="30.885" gradientUnits="userSpaceOnUse"><stop stop-color="#F7AC5C"/><stop offset="1" stop-color="#DB7637"/></linearGradient><linearGradient id="e" x1="138.057" x2="160.891" y1="30.607" y2="30.832" gradientUnits="userSpaceOnUse"><stop stop-color="#F7AC5C"/><stop offset="1" stop-color="#DB7637"/></linearGradient><linearGradient id="f" x1="122.365" x2="137.125" y1="30.607" y2="30.701" gradientUnits="userSpaceOnUse"><stop stop-color="#F7AC5C"/><stop offset="1" stop-color="#DB7637"/></linearGradient><linearGradient id="g" x1="101.819" x2="120.09" y1="30.607" y2="30.751" gradientUnits="userSpaceOnUse"><stop stop-color="#F7AC5C"/><stop offset="1" stop-color="#DB7637"/></linearGradient><linearGradient id="h" x1="79.326" x2="99.102" y1="30.5" y2="30.665" gradientUnits="userSpaceOnUse"><stop stop-color="#F7AC5C"/><stop offset="1" stop-color="#DB7637"/></linearGradient></defs></svg>